<?xml version="1.0" encoding="utf-8"?>
<!-- Generator: Adobe Illustrator 20.1.0, SVG Export Plug-In . SVG Version: 6.00 Build 0)  -->
<svg version="1.1" id="Layer_1" xmlns="http://www.w3.org/2000/svg" xmlns:xlink="http://www.w3.org/1999/xlink" x="0px" y="0px"
	 viewBox="0 0 283.5 283.5" enable-background="new 0 0 283.5 283.5" xml:space="preserve">
<g>
	<path fill="#231F20" d="M267.6,89.9c-10.1-24.3-27.1-45.1-48.5-59.8c-10.7-7.4-22.6-13.2-35.3-17.2c-12.7-4-26.2-6.3-40.1-6.3
		c-18.6-0.1-36.4,3.5-52.7,10.3C78.7,22,67.2,28.9,57,37.3l7.1,12.4c3.7-3.2,7.6-6.2,11.7-8.9c9.7-6.5,20.4-11.6,31.8-15
		c11.4-3.5,23.5-5.3,36-5.2c16.7,0.1,32.6,3.6,47,9.8c21.6,9.3,40,24.8,53,44.2c6.5,9.7,11.6,20.3,15,31.7c3.5,11.4,5.3,23.5,5.2,36
		c-0.1,16.9-3.6,32.6-9.8,47.1c-9.3,21.6-24.8,40.1-44.2,53c-9.7,6.5-20.4,11.6-31.8,15c-11.4,3.5-23.5,5.3-36,5.2
		c-3.8,0-7.5-0.2-11.1-0.6L232.5,89.2L86.1,89L94,103l113.9,0.2l-99.1,169.2c10.6,2.7,21.7,4.2,33.1,4.3
		c18.6,0.1,36.4-3.5,52.7-10.3c24.3-10.1,45.1-27.1,59.8-48.5c7.4-10.7,13.2-22.6,17.2-35.3c4-12.7,6.3-26.2,6.3-40.1
		C278,124,274.4,106.2,267.6,89.9z"/>
	<path fill="#231F20" d="M42,208.7c-6.5-9.7-11.6-20.4-15-31.8c-3.5-11.4-5.3-23.5-5.2-36c0.1-16.7,3.6-32.6,9.8-47
		c3.3-7.7,7.4-15,12.2-21.8l80.6,143.6l57.3-98.1l-16.2-0.1l-40.9,69.9L45.9,47.6C40.5,53.1,35.6,59,31.3,65.4
		C23.9,76.1,18.1,88,14.1,100.7c-4,12.7-6.3,26.2-6.3,40.1c-0.1,18.6,3.5,36.4,10.3,52.7c10.1,24.3,27.1,45.1,48.5,59.8
		c8.7,6,18.2,10.9,28.2,14.8l7.2-12.3c-2.4-0.8-4.7-1.8-7-2.7C73.3,243.6,54.9,228.1,42,208.7z"/>
</g>
</svg>
