<svg xmlns="http://www.w3.org/2000/svg" xmlns:xlink="http://www.w3.org/1999/xlink" width="20" height="20" viewBox="0 0 20 20">
    <defs>
        <path id="a" d="M19.727 17.293l-3.895-3.895a.937.937 0 0 0-.664-.273h-.637a8.085 8.085 0 0 0 1.719-5A8.124 8.124 0 0 0 8.125 0 8.124 8.124 0 0 0 0 8.125a8.124 8.124 0 0 0 8.125 8.125c1.887 0 3.621-.64 5-1.719v.637c0 .25.098.488.273.664l3.895 3.895a.934.934 0 0 0 1.324 0l1.106-1.106a.942.942 0 0 0 .004-1.328zM8.125 13.125c-2.762 0-5-2.234-5-5 0-2.762 2.234-5 5-5 2.762 0 5 2.234 5 5 0 2.762-2.234 5-5 5z"/>
    </defs>
    <g fill="none" fill-rule="evenodd" opacity=".25">
        <mask id="b" fill="#fff">
            <use xlink:href="#a"/>
        </mask>
        <use fill="#000" fill-rule="nonzero" xlink:href="#a"/>
        <g fill="#242A42" mask="url(#b)">
            <path d="M0 0h20v20H0z"/>
        </g>
    </g>
</svg>
